<svg width="96" height="94" viewBox="0 0 96 94" fill="none" xmlns="http://www.w3.org/2000/svg">
<path d="M8.61333 93.536C6.16 93.536 4.112 92.7147 2.46933 91.072C0.823111 89.4258 0 87.376 0 84.9227V38.1493C0 35.696 0.823111 33.648 2.46933 32.0053C4.112 30.3591 6.16 29.536 8.61333 29.536H87.3867C89.84 29.536 91.888 30.3591 93.5307 32.0053C95.1769 33.648 96 35.696 96 38.1493V84.9227C96 87.376 95.1787 89.424 93.536 91.0667C91.8898 92.7129 89.84 93.536 87.3867 93.536H8.61333ZM8.61333 88.2027H87.3867C88.2044 88.2027 88.9565 87.8613 89.6427 87.1787C90.3253 86.4924 90.6667 85.7404 90.6667 84.9227V38.1493C90.6667 37.3316 90.3253 36.5796 89.6427 35.8933C88.9565 35.2107 88.2044 34.8693 87.3867 34.8693H8.61333C7.79555 34.8693 7.04356 35.2107 6.35733 35.8933C5.67467 36.5796 5.33333 37.3316 5.33333 38.1493V84.9227C5.33333 85.7404 5.67467 86.4924 6.35733 87.1787C7.04356 87.8613 7.79555 88.2027 8.61333 88.2027ZM43.312 75.6587L61.8987 63.2853C62.56 62.8231 62.8907 62.24 62.8907 61.536C62.8907 60.832 62.56 60.2471 61.8987 59.7813L43.312 47.408C42.5618 46.9244 41.8222 46.8764 41.0933 47.264C40.3644 47.6516 40 48.2756 40 49.136V73.936C40 74.7964 40.3644 75.4204 41.0933 75.808C41.8222 76.1956 42.5618 76.1458 43.312 75.6587ZM10.6667 20.1013C9.90933 20.1013 9.27467 19.8471 8.76267 19.3387C8.25422 18.8267 8 18.1902 8 17.4293C8 16.6684 8.25422 16.0338 8.76267 15.5253C9.27467 15.0169 9.90933 14.7627 10.6667 14.7627H85.3333C86.0907 14.7627 86.7253 15.0169 87.2373 15.5253C87.7458 16.0338 88 16.6684 88 17.4293C88 18.1867 87.7458 18.8213 87.2373 19.3333C86.7253 19.8418 86.0907 20.096 85.3333 20.096L10.6667 20.1013ZM26.6667 5.328C25.9093 5.328 25.2747 5.07378 24.7627 4.56533C24.2542 4.05689 24 3.424 24 2.66667C24 1.90578 24.2542 1.27111 24.7627 0.762667C25.2747 0.254223 25.9093 0 26.6667 0H69.3333C70.0907 0 70.7253 0.254223 71.2373 0.762667C71.7458 1.27111 72 1.90578 72 2.66667C72 3.424 71.7458 4.05689 71.2373 4.56533C70.7253 5.07733 70.0907 5.33333 69.3333 5.33333L26.6667 5.328Z" fill="#6667AB"/>
</svg>
