<svg width="90" height="78" viewBox="0 0 90 78" fill="none" xmlns="http://www.w3.org/2000/svg">
<path d="M82.0865 0.0149316L10.889 4.76093C9.56301 4.85243 5.40051 7.27343 4.83051 12.5249L0.0695059 56.5154C-0.177994 58.8104 0.011006 64.1714 4.50051 65.0069L73.784 77.8784C74.222 77.9594 74.6675 77.9999 75.107 77.9999C76.7825 77.9999 82.8185 76.6529 83.4455 70.8104L89.93 10.9124C90.539 5.31293 87.137 -0.328568 82.0865 0.0149316ZM11.078 7.44443L82.268 2.69693C83.1641 2.62783 84.0586 2.8487 84.8195 3.32693L36.7265 46.8944L9.74301 8.09543C10.1915 7.70393 10.6565 7.47293 11.078 7.44443ZM2.78151 56.7989L7.54251 12.8099C7.62951 12.0149 7.82901 11.2274 8.12151 10.5074L25.6805 35.3729L2.81301 58.8704C2.71676 58.1839 2.70618 57.4881 2.78151 56.7989ZM74.2895 75.2339L5.00601 62.3639C4.62501 62.2934 4.24701 62.0354 3.90951 61.6304L25.823 39.1109L27.242 37.6514L36.185 50.9594L50.132 38.7689L54.6245 44.7599L77.165 74.8124C76.2792 75.266 75.2683 75.4142 74.2895 75.2339ZM87.2195 9.28193L80.735 69.1799C80.5775 70.6379 80.0495 71.9879 79.241 73.0529L52.1645 36.9539L86.603 5.36393C87.1535 6.48443 87.374 7.84943 87.2195 9.28193Z" fill="#6667AB"/>
</svg>
