<svg width="100" height="100" viewBox="0 0 100 100" fill="none" xmlns="http://www.w3.org/2000/svg">
<path d="M84.2857 56.8571V50C84.2857 48.1814 83.5633 46.4372 82.2773 45.1513C80.9913 43.8653 79.2472 43.1429 77.4286 43.1429H8.85714C7.03852 43.1429 5.29437 43.8653 4.00841 45.1513C2.72245 46.4372 2 48.1814 2 50V91.1429C2 92.9615 2.72245 94.7056 4.00841 95.9916C5.29437 97.2776 7.03852 98 8.85714 98H77.4286C79.2472 98 80.9913 97.2776 82.2773 95.9916C83.5633 94.7056 84.2857 92.9615 84.2857 91.1429V84.2857M84.2857 56.8571H56.8571C53.2199 56.8571 49.7316 58.302 47.1597 60.874C44.5878 63.4459 43.1429 66.9342 43.1429 70.5714C43.1429 74.2087 44.5878 77.697 47.1597 80.2689C49.7316 82.8408 53.2199 84.2857 56.8571 84.2857H84.2857M84.2857 56.8571C87.923 56.8571 91.4112 58.302 93.9832 60.874C96.5551 63.4459 98 66.9342 98 70.5714C98 74.2087 96.5551 77.697 93.9832 80.2689C91.4112 82.8408 87.923 84.2857 84.2857 84.2857M22.5714 43.1429V22.5714C22.5714 17.1155 24.7388 11.8831 28.5967 8.02523C32.4546 4.16734 37.687 2 43.1429 2C48.5987 2 53.8312 4.16734 57.6891 8.02523C61.5469 11.8831 63.7143 17.1155 63.7143 22.5714V43.1429M80.8571 70.5714H87.7143M67.1429 70.5714H74M53.4286 70.5714H60.2857" stroke="#6667AB" stroke-width="2.5"/>
</svg>
