<svg width="16" height="15" viewBox="0 0 16 15" fill="none" xmlns="http://www.w3.org/2000/svg">
<path d="M1.6 1.6H4L5.6 0H10.4L12 1.6H14.4C14.8243 1.6 15.2313 1.76857 15.5314 2.06863C15.8314 2.36869 16 2.77565 16 3.2V12.8C16 13.2243 15.8314 13.6313 15.5314 13.9314C15.2313 14.2314 14.8243 14.4 14.4 14.4H1.6C1.17565 14.4 0.768687 14.2314 0.468629 13.9314C0.168571 13.6313 0 13.2243 0 12.8V3.2C0 2.77565 0.168571 2.36869 0.468629 2.06863C0.768687 1.76857 1.17565 1.6 1.6 1.6ZM8 4C6.93913 4 5.92172 4.42143 5.17157 5.17157C4.42143 5.92172 4 6.93913 4 8C4 9.06087 4.42143 10.0783 5.17157 10.8284C5.92172 11.5786 6.93913 12 8 12C9.06087 12 10.0783 11.5786 10.8284 10.8284C11.5786 10.0783 12 9.06087 12 8C12 6.93913 11.5786 5.92172 10.8284 5.17157C10.0783 4.42143 9.06087 4 8 4ZM8 5.6C8.63652 5.6 9.24697 5.85286 9.69706 6.30294C10.1471 6.75303 10.4 7.36348 10.4 8C10.4 8.63652 10.1471 9.24697 9.69706 9.69706C9.24697 10.1471 8.63652 10.4 8 10.4C7.36348 10.4 6.75303 10.1471 6.30294 9.69706C5.85286 9.24697 5.6 8.63652 5.6 8C5.6 7.36348 5.85286 6.75303 6.30294 6.30294C6.75303 5.85286 7.36348 5.6 8 5.6Z" fill="#F4F5FF"/>
</svg>
