<svg width="82" height="70" viewBox="0 0 82 70" fill="none" xmlns="http://www.w3.org/2000/svg">
<path d="M59.75 0.5C51.71 0.5 44.78 4.32125 41 10.6512C37.22 4.32125 30.29 0.5 22.25 0.5C16.4837 0.506947 10.9555 2.80069 6.8781 6.8781C2.80069 10.9555 0.506947 16.4837 0.5 22.25C0.5 32.9712 7.25 44.1762 20.525 55.5462C26.6544 60.7621 33.2725 65.3747 40.2875 69.32C40.5064 69.4382 40.7512 69.5 41 69.5C41.2488 69.5 41.4936 69.4382 41.7125 69.32C48.7275 65.3747 55.3456 60.7621 61.475 55.5462C74.75 44.1762 81.5 32.9712 81.5 22.25C81.493 16.4837 79.1993 10.9555 75.1219 6.8781C71.0445 2.80069 65.5163 0.506947 59.75 0.5ZM41 66.2825C35.75 63.2975 3.5 44.0262 3.5 22.25C3.50595 17.279 5.48331 12.5133 8.99832 8.99832C12.5133 5.48331 17.279 3.50595 22.25 3.5C30.1663 3.5 36.8188 7.74125 39.6125 14.5663C39.7255 14.8414 39.9178 15.0767 40.1648 15.2423C40.4119 15.4079 40.7026 15.4963 41 15.4963C41.2974 15.4963 41.5881 15.4079 41.8352 15.2423C42.0822 15.0767 42.2745 14.8414 42.3875 14.5663C45.1812 7.74125 51.8337 3.5 59.75 3.5C64.721 3.50595 69.4867 5.48331 73.0017 8.99832C76.5167 12.5133 78.494 17.279 78.5 22.25C78.5 44 46.25 63.2975 41 66.2825Z" fill="#6667AB"/>
</svg>
