<svg width="80" height="80" viewBox="0 0 80 80" fill="none" xmlns="http://www.w3.org/2000/svg">
<path d="M40 78C60.9868 78 78 60.9868 78 40C78 19.0132 60.9868 2 40 2C19.0132 2 2 19.0132 2 40C2 60.9868 19.0132 78 40 78Z" stroke="#6667AB" stroke-width="4" stroke-linecap="round"/>
<path d="M24.8359 58.4879C26.5199 57.0279 28.8319 55.9039 31.4439 55.1519C34.2288 54.3736 37.1084 53.9859 39.9999 53.9999C42.9759 53.9999 45.9199 54.3919 48.5559 55.1519C51.1719 55.9039 53.4759 57.0279 55.1639 58.4879" stroke="#6667AB" stroke-width="4" stroke-linecap="round"/>
<path d="M28 36C30.2091 36 32 34.2091 32 32C32 29.7909 30.2091 28 28 28C25.7909 28 24 29.7909 24 32C24 34.2091 25.7909 36 28 36Z" fill="#6667AB" stroke="#6667AB" stroke-width="4" stroke-linecap="round"/>
<path d="M52 36C54.2091 36 56 34.2091 56 32C56 29.7909 54.2091 28 52 28C49.7909 28 48 29.7909 48 32C48 34.2091 49.7909 36 52 36Z" fill="#6667AB" stroke="#6667AB" stroke-width="4" stroke-linecap="round"/>
</svg>
