<svg width="244" height="94" viewBox="0 0 244 94" fill="none" xmlns="http://www.w3.org/2000/svg">
<path d="M113.92 68.1681L112.63 67.6436L103.712 89.5726L105.002 90.0971L113.92 68.1681Z" fill="#CAB47C"/>
<path d="M104.343 90.5152C104.244 90.5152 104.145 90.5152 104.045 90.4158C103.647 90.3163 103.548 89.9184 103.647 89.5205L111.704 69.6266C111.804 69.2287 112.202 69.1293 112.599 69.2287C112.997 69.3282 113.097 69.7261 112.997 70.124L104.94 90.0179C104.94 90.3163 104.642 90.5152 104.343 90.5152Z" fill="#CAB47C"/>
<path d="M106.461 63.4862L105.47 62.5078L88.8365 79.3517L89.8274 80.3301L106.461 63.4862Z" fill="#CAB47C"/>
<path d="M89.3242 80.4698C89.1252 80.4698 88.9263 80.3703 88.8268 80.2709C88.5284 79.9724 88.5284 79.5746 88.8268 79.2762L103.946 64.0573C104.245 63.7589 104.643 63.7589 104.941 64.0573C105.239 64.3557 105.239 64.7536 104.941 65.052L89.8215 80.2709C89.7221 80.3703 89.5231 80.4698 89.3242 80.4698Z" fill="#CAB47C"/>
<path d="M101.397 56.2636L100.856 54.9805L79.0429 64.1825L79.5842 65.4656L101.397 56.2636Z" fill="#CAB47C"/>
<path d="M79.2787 65.4471C78.9803 65.4471 78.7813 65.2482 78.6819 65.0492C78.5824 64.6514 78.6819 64.2535 79.0798 64.154L98.8742 55.7986C99.2721 55.6991 99.67 55.7986 99.7694 56.1965C99.8689 56.5943 99.7694 56.9922 99.3715 57.0917L79.5771 65.4471C79.4776 65.4471 79.3782 65.4471 79.2787 65.4471Z" fill="#CAB47C"/>
<path d="M99.4668 47.5903L99.458 46.1978L75.7842 46.348L75.7931 47.7406L99.4668 47.5903Z" fill="#CAB47C"/>
<path d="M75.7964 47.7489C75.3985 47.7489 75.1001 47.4505 75.1001 47.0526C75.1001 46.6547 75.3985 46.3563 75.7964 46.3563L97.2818 46.2568C97.6797 46.2568 97.9781 46.5552 97.9781 46.9531C97.9781 47.351 97.6797 47.6494 97.2818 47.6494L75.7964 47.7489Z" fill="#CAB47C"/>
<path d="M101.439 37.6337L79.5103 28.7158L78.9857 30.0058L100.915 38.9237L101.439 37.6337Z" fill="#CAB47C"/>
<path d="M99.17 38.0929C99.0706 38.0929 98.9711 38.0929 98.8716 37.9934L78.9777 29.9364C78.5798 29.8369 78.4804 29.4391 78.5798 29.0412C78.6793 28.6433 79.0772 28.5438 79.475 28.6433L99.369 36.7003C99.7668 36.7998 99.8663 37.1977 99.7668 37.5956C99.6674 37.9934 99.4684 38.0929 99.17 38.0929Z" fill="#CAB47C"/>
<path d="M106.567 30.4779L89.7212 13.8447L88.7428 14.8357L105.589 31.4689L106.567 30.4779Z" fill="#CAB47C"/>
<path d="M104.542 30.1355C104.343 30.1355 104.144 30.036 104.045 29.9365L88.8259 14.8171C88.5274 14.5187 88.5274 14.1208 88.8259 13.8224C89.1243 13.524 89.5221 13.524 89.8206 13.8224L105.039 28.9418C105.338 29.2402 105.338 29.6381 105.039 29.9365C104.94 30.036 104.741 30.1355 104.542 30.1355Z" fill="#CAB47C"/>
<path d="M114.049 25.7769L104.849 3.96387L103.566 4.50502L112.766 26.318L114.049 25.7769Z" fill="#CAB47C"/>
<path d="M112.601 24.768C112.303 24.768 112.104 24.569 112.004 24.3701L103.649 4.57563C103.549 4.17776 103.649 3.77988 104.047 3.68041C104.444 3.58094 104.842 3.68041 104.942 4.07829L113.297 23.8727C113.397 24.2706 113.297 24.6685 112.899 24.768C112.8 24.768 112.7 24.768 112.601 24.768Z" fill="#CAB47C"/>
<path d="M122.868 24.3691L122.716 0.695312L121.324 0.70424L121.476 24.378L122.868 24.3691Z" fill="#CAB47C"/>
<path d="M122.15 22.878C121.752 22.878 121.453 22.5796 121.453 22.1817L121.354 0.696287C121.354 0.298409 121.652 0 122.05 0C122.448 0 122.747 0.298409 122.747 0.696287L122.846 22.1817C122.846 22.5796 122.548 22.878 122.15 22.878Z" fill="#CAB47C"/>
<path d="M140.377 4.51565L139.087 3.99121L130.171 25.9226L131.461 26.447L140.377 4.51565Z" fill="#CAB47C"/>
<path d="M131.599 24.8732C131.499 24.8732 131.4 24.8732 131.3 24.7737C130.903 24.6742 130.803 24.2763 130.903 23.8785L138.96 3.98454C139.059 3.58666 139.457 3.48719 139.855 3.58666C140.253 3.68613 140.352 4.08401 140.253 4.48188L132.196 24.3758C132.196 24.6742 131.897 24.8732 131.599 24.8732Z" fill="#CAB47C"/>
<path d="M155.227 14.7187L154.236 13.7402L137.603 30.5841L138.594 31.5625L155.227 14.7187Z" fill="#CAB47C"/>
<path d="M139.656 30.2349C139.457 30.2349 139.258 30.1355 139.159 30.036C138.86 29.7376 138.86 29.3397 139.159 29.0413L154.278 13.8224C154.577 13.524 154.975 13.524 155.273 13.8224C155.571 14.1208 155.571 14.5187 155.273 14.8171L140.154 30.036C140.054 30.1355 139.855 30.2349 139.656 30.2349Z" fill="#CAB47C"/>
<path d="M165.109 29.8726L164.568 28.5894L142.753 37.7842L143.294 39.0675L165.109 29.8726Z" fill="#CAB47C"/>
<path d="M145.027 38.2972C144.728 38.2972 144.529 38.0983 144.43 37.8993C144.33 37.5015 144.43 37.1036 144.828 37.0041L164.622 28.6487C165.02 28.5492 165.418 28.6487 165.517 29.0465C165.617 29.4444 165.517 29.8423 165.12 29.9418L145.325 38.2972C145.226 38.2972 145.126 38.2972 145.027 38.2972Z" fill="#CAB47C"/>
<path d="M168.368 47.728L168.359 46.3354L144.686 46.4857L144.694 47.8783L168.368 47.728Z" fill="#CAB47C"/>
<path d="M146.819 47.846C146.421 47.846 146.123 47.5476 146.123 47.1498C146.123 46.7519 146.421 46.4535 146.819 46.4535L168.304 46.354C168.702 46.354 169.001 46.6524 169.001 47.0503C169.001 47.4482 168.702 47.7466 168.304 47.7466L146.819 47.846Z" fill="#CAB47C"/>
<path d="M165.091 64.082L143.162 55.1641L142.638 56.454L164.567 65.3719L165.091 64.082Z" fill="#CAB47C"/>
<path d="M164.821 65.3507C164.721 65.3507 164.622 65.3507 164.522 65.2513L144.629 57.1942C144.231 57.0947 144.131 56.6969 144.231 56.299C144.33 55.9011 144.728 55.8016 145.126 55.9011L165.02 63.9581C165.418 64.0576 165.517 64.4555 165.418 64.8534C165.318 65.2513 165.119 65.3507 164.821 65.3507Z" fill="#CAB47C"/>
<path d="M155.338 79.2597L138.49 62.6289L137.511 63.62L154.36 80.2508L155.338 79.2597Z" fill="#CAB47C"/>
<path d="M154.775 80.3791C154.577 80.3791 154.378 80.2796 154.278 80.1802L139.059 65.0608C138.761 64.7624 138.761 64.3645 139.059 64.0661C139.358 63.7677 139.756 63.7677 140.054 64.0661L155.273 79.1855C155.571 79.4839 155.571 79.8818 155.273 80.1802C155.173 80.3791 154.974 80.3791 154.775 80.3791Z" fill="#CAB47C"/>
<path d="M140.448 89.4927L131.248 67.6797L129.965 68.2208L139.165 90.0338L140.448 89.4927Z" fill="#CAB47C"/>
<path d="M139.756 90.4208C139.458 90.4208 139.259 90.2218 139.159 90.0229L130.804 70.2285C130.704 69.8306 130.804 69.4327 131.202 69.3332C131.6 69.2338 131.998 69.3332 132.097 69.7311L140.452 89.5256C140.552 89.9234 140.452 90.3213 140.055 90.4208C139.955 90.4208 139.856 90.4208 139.756 90.4208Z" fill="#CAB47C"/>
<path d="M122.827 93.371L122.675 69.6973L121.282 69.7062L121.434 93.38L122.827 93.371Z" fill="#CAB47C"/>
<path d="M122.05 94.0001C121.652 94.0001 121.353 93.7017 121.353 93.3038L121.254 71.8184C121.254 71.4205 121.552 71.1221 121.95 71.1221C122.348 71.1221 122.646 71.4205 122.646 71.8184L122.746 93.3038C122.746 93.7017 122.448 94.0001 122.05 94.0001Z" fill="#CAB47C"/>
<path d="M118.004 69.2026L116.637 68.9351L113.981 82.5042L115.348 82.7717L118.004 69.2026Z" fill="#CAB47C"/>
<path d="M114.292 85.1461H114.193C113.795 85.0467 113.596 84.7482 113.695 84.3504L116.083 72.2151C116.182 71.8172 116.48 71.6183 116.878 71.7177C117.276 71.8172 117.475 72.1156 117.376 72.5135L114.988 84.6488C114.889 84.9472 114.59 85.1461 114.292 85.1461Z" fill="#CAB47C"/>
<path d="M109.753 66.0152L108.593 65.2451L100.947 76.7652L102.107 77.5353L109.753 66.0152Z" fill="#CAB47C"/>
<path d="M100.465 79.3752C100.366 79.3752 100.167 79.3752 100.068 79.2758C99.7692 79.0768 99.6697 78.6789 99.8686 78.2811L106.732 67.9362C106.931 67.6378 107.329 67.5384 107.727 67.7373C108.025 67.9362 108.125 68.3341 107.926 68.732L101.062 79.0768C100.963 79.2758 100.664 79.3752 100.465 79.3752Z" fill="#CAB47C"/>
<path d="M103.392 59.9768L102.615 58.8213L91.1422 66.5377L91.9194 67.6933L103.392 59.9768Z" fill="#CAB47C"/>
<path d="M90.0226 68.8303C89.8236 68.8303 89.6247 68.7308 89.4258 68.5319C89.2268 68.2335 89.3263 67.8356 89.6247 67.5372L99.8701 60.6738C100.168 60.4749 100.566 60.5743 100.865 60.8728C101.064 61.1712 100.964 61.569 100.666 61.8674L90.4205 68.7309C90.2215 68.7309 90.1221 68.8303 90.0226 68.8303Z" fill="#CAB47C"/>
<path d="M99.7987 51.8933L99.5229 50.5283L85.9704 53.2659L86.2462 54.6309L99.7987 51.8933Z" fill="#CAB47C"/>
<path d="M84.352 55.0092C84.0536 55.0092 83.7552 54.8102 83.6557 54.4124C83.5563 54.0145 83.8547 53.7161 84.1531 53.6166L96.2884 51.1299C96.6863 51.0304 96.9847 51.3288 97.0841 51.6272C97.1836 52.0251 96.8852 52.3235 96.5868 52.423L84.4515 55.0092H84.352Z" fill="#CAB47C"/>
<path d="M99.8718 41.7215L86.3027 39.0654L86.0352 40.4321L99.6043 43.0881L99.8718 41.7215Z" fill="#CAB47C"/>
<path d="M96.4874 42.4713H96.388L84.2527 40.0841C83.8548 39.9846 83.6559 39.6862 83.7553 39.2883C83.8548 38.8904 84.1532 38.6915 84.5511 38.791L96.6864 41.0788C97.0843 41.1782 97.2832 41.4767 97.1837 41.8745C97.0843 42.1729 96.7858 42.4713 96.4874 42.4713Z" fill="#CAB47C"/>
<path d="M103.582 33.6748L92.0615 26.0303L91.2916 27.1906L102.812 34.8351L103.582 33.6748Z" fill="#CAB47C"/>
<path d="M100.468 33.1204C100.368 33.1204 100.169 33.1204 100.07 33.0209L89.7248 26.1575C89.4264 25.9585 89.3269 25.5607 89.5259 25.1628C89.7248 24.8644 90.1227 24.7649 90.5206 24.9639L100.865 31.8273C101.164 32.0262 101.263 32.4241 101.064 32.822C100.865 33.0209 100.666 33.1204 100.468 33.1204Z" fill="#CAB47C"/>
<path d="M110.009 27.6937L102.294 16.2207L101.139 16.9978L108.854 28.4708L110.009 27.6937Z" fill="#CAB47C"/>
<path d="M107.627 26.058C107.428 26.058 107.229 25.9585 107.03 25.7596L100.167 15.5142C99.968 15.2158 100.068 14.8179 100.366 14.5195C100.664 14.3206 101.062 14.42 101.361 14.7185L108.224 24.9638C108.423 25.2622 108.323 25.6601 108.025 25.9585C107.926 25.9585 107.727 26.058 107.627 26.058Z" fill="#CAB47C"/>
<path d="M118.344 24.7107L115.605 11.1582L114.24 11.4341L116.979 24.9866L118.344 24.7107Z" fill="#CAB47C"/>
<path d="M116.977 22.2808C116.679 22.2808 116.381 22.0818 116.281 21.684L113.794 9.54867C113.695 9.15079 113.993 8.85238 114.292 8.75291C114.69 8.65344 114.988 8.95185 115.088 9.25026L117.574 21.3855C117.674 21.7834 117.375 22.0818 117.077 22.1813C117.077 22.2808 116.977 22.2808 116.977 22.2808Z" fill="#CAB47C"/>
<path d="M129.834 11.4088L128.467 11.1416L125.814 24.7107L127.181 24.9779L129.834 11.4088Z" fill="#CAB47C"/>
<path d="M127.125 22.2789H127.026C126.628 22.1795 126.429 21.8811 126.528 21.4832L128.916 9.34789C129.015 8.95001 129.313 8.75107 129.711 8.85054C130.109 8.95001 130.308 9.24842 130.209 9.6463L127.821 21.7816C127.722 22.08 127.424 22.2789 127.125 22.2789Z" fill="#CAB47C"/>
<path d="M142.776 17.1461L141.616 16.376L133.97 27.896L135.13 28.6661L142.776 17.1461Z" fill="#CAB47C"/>
<path d="M136.373 26.2493C136.274 26.2493 136.075 26.2493 135.975 26.1498C135.677 25.9508 135.577 25.553 135.776 25.1551L142.64 14.8103C142.839 14.5118 143.237 14.4124 143.634 14.6113C143.933 14.8103 144.032 15.2081 143.833 15.606L136.97 25.9508C136.771 26.1498 136.572 26.2493 136.373 26.2493Z" fill="#CAB47C"/>
<path d="M152.583 27.5209L151.806 26.3652L140.331 34.0789L141.108 35.2346L152.583 27.5209Z" fill="#CAB47C"/>
<path d="M143.437 33.4231C143.238 33.4231 143.039 33.3236 142.84 33.1247C142.641 32.8263 142.741 32.4284 143.039 32.13L153.285 25.2666C153.583 25.0676 153.981 25.1671 154.279 25.4655C154.478 25.7639 154.379 26.1618 154.08 26.4602L143.835 33.3236C143.736 33.4231 143.636 33.4231 143.437 33.4231Z" fill="#CAB47C"/>
<path d="M157.692 40.6941L157.417 39.3291L143.864 42.0667L144.14 43.4317L157.692 40.6941Z" fill="#CAB47C"/>
<path d="M147.316 42.7689C147.018 42.7689 146.72 42.57 146.62 42.1721C146.521 41.7742 146.819 41.4758 147.117 41.3764L159.253 38.8896C159.651 38.7902 159.949 39.0886 160.048 39.387C160.148 39.7849 159.85 40.0833 159.551 40.1827L147.416 42.6695C147.316 42.7689 147.316 42.7689 147.316 42.7689Z" fill="#CAB47C"/>
<path d="M157.657 53.5532L144.088 50.9014L143.821 52.268L157.39 54.9199L157.657 53.5532Z" fill="#CAB47C"/>
<path d="M159.351 55.3014H159.252L147.116 52.9142C146.719 52.8147 146.52 52.5163 146.619 52.1184C146.719 51.7205 147.017 51.5216 147.415 51.6211L159.55 54.0083C159.948 54.1078 160.147 54.4062 160.047 54.8041C159.948 55.003 159.65 55.3014 159.351 55.3014Z" fill="#CAB47C"/>
<path d="M152.388 66.7764L140.868 59.1318L140.098 60.2921L151.618 67.9367L152.388 66.7764Z" fill="#CAB47C"/>
<path d="M153.582 69.0276C153.483 69.0276 153.284 69.0276 153.184 68.9281L142.84 62.0647C142.541 61.8658 142.442 61.4679 142.641 61.07C142.84 60.7716 143.237 60.6721 143.635 60.8711L153.98 67.7345C154.279 67.9334 154.378 68.3313 154.179 68.7292C153.98 68.9281 153.781 69.0276 153.582 69.0276Z" fill="#CAB47C"/>
<path d="M142.53 76.9805L134.811 65.5088L133.655 66.2863L141.374 77.7579L142.53 76.9805Z" fill="#CAB47C"/>
<path d="M142.94 79.573C142.741 79.573 142.542 79.4735 142.343 79.2746L135.479 68.9297C135.281 68.6313 135.38 68.2335 135.678 67.935C135.977 67.7361 136.375 67.8356 136.673 68.134L143.537 78.3794C143.735 78.6778 143.636 79.0756 143.338 79.374C143.238 79.4735 143.139 79.573 142.94 79.573Z" fill="#CAB47C"/>
<path d="M129.436 82.6238L126.699 69.0713L125.334 69.347L128.071 82.8995L129.436 82.6238Z" fill="#CAB47C"/>
<path d="M129.214 85.2476C128.915 85.2476 128.617 85.0486 128.517 84.6508L126.031 72.5155C125.931 72.1176 126.23 71.8192 126.528 71.7197C126.926 71.6202 127.224 71.9186 127.324 72.2171L129.811 84.3523C129.91 84.7502 129.612 85.0486 129.313 85.1481L129.214 85.2476Z" fill="#CAB47C"/>
<path d="M45.955 22.083C44.9603 22.083 44.1645 22.8788 44.1645 23.8735V37.3019C40.5836 29.1453 32.4271 23.4756 23.0769 23.4756C10.3448 23.4756 0 33.8204 0 46.5525C0 59.2846 10.3448 69.6295 23.0769 69.6295C32.5266 69.6295 40.5836 63.9597 44.1645 55.8032V66.347C44.065 69.3311 43.0703 77.6865 39.2905 80.7701L39.0915 80.8695L38.9921 80.969C38.8926 81.0685 32.626 88.4292 16.313 85.2462C16.0146 85.1467 8.85279 83.5552 5.47083 75.8961C5.07295 75.0008 3.97878 74.6029 3.08356 75.0008C2.18833 75.3987 1.79045 76.4929 2.18833 77.3881C6.26658 86.8377 15.2188 88.7276 15.6167 88.8271C18.7003 89.4239 21.5849 89.7223 24.0716 89.7223C35.5106 89.7223 40.7825 84.5499 41.6778 83.5552C47.447 78.7807 47.7454 67.0433 47.7454 66.5459V23.8735C47.6459 22.8788 46.8502 22.083 45.955 22.083ZM22.9775 66.148C12.2348 66.148 3.48144 57.3947 3.48144 46.652C3.48144 35.9093 12.2348 27.156 22.9775 27.156C33.7202 27.156 42.4735 35.9093 42.4735 46.652C42.4735 57.3947 33.7202 66.148 22.9775 66.148Z" fill="#CAB47C"/>
<path d="M64.3574 69.5259C63.3627 69.5259 62.5669 68.7302 62.5669 67.7355V4.97014C62.5669 3.97544 63.3627 3.17969 64.3574 3.17969C65.352 3.17969 66.1478 3.97544 66.1478 4.97014V67.7355C66.0483 68.7302 65.2526 69.5259 64.3574 69.5259Z" fill="#CAB47C"/>
<path d="M224.005 68.9314L207.195 29.8398L190.185 68.8319L169.993 23.3743C169.595 22.4791 169.993 21.3849 170.888 20.987C171.784 20.5891 172.878 20.987 173.276 21.8823L190.185 59.8796L207.294 20.7881L224.105 59.7802L240.318 21.8823C240.716 20.987 241.711 20.5891 242.705 20.987C243.7 21.3849 243.998 22.3796 243.601 23.3743L224.005 68.9314Z" fill="#CAB47C"/>
</svg>
