<svg width="16" height="19" viewBox="0 0 16 19" fill="none" xmlns="http://www.w3.org/2000/svg">
<path d="M6.28551 0C6.13395 0 5.9886 0.0602071 5.88143 0.167376C5.77426 0.274546 5.71405 0.419898 5.71405 0.571458C5.71405 0.723019 5.77426 0.868371 5.88143 0.975541C5.9886 1.08271 6.13395 1.14292 6.28551 1.14292H6.85697V2.36584C4.85509 2.65518 3.03708 3.69193 1.7687 5.26751C0.500329 6.84309 -0.124278 8.84056 0.0205519 10.858C0.165382 12.8755 1.0689 14.7633 2.54932 16.1416C4.02975 17.5198 5.97721 18.2862 7.99989 18.2867C9.53357 18.2866 11.0349 17.8457 12.3251 17.0165C13.6153 16.1873 14.64 15.0047 15.2771 13.6096C15.9142 12.2145 16.1368 10.6657 15.9186 9.14763C15.7003 7.62955 15.0503 6.20621 14.0459 5.04712L14.0608 5.03341L14.4654 4.62881L14.8688 5.03341C14.9215 5.08799 14.9846 5.13152 15.0543 5.16147C15.124 5.19142 15.199 5.20718 15.2749 5.20784C15.3508 5.2085 15.426 5.19404 15.4963 5.16531C15.5665 5.13658 15.6303 5.09414 15.6839 5.04049C15.7376 4.98683 15.78 4.92303 15.8088 4.8528C15.8375 4.78257 15.852 4.70732 15.8513 4.63144C15.8506 4.55556 15.8349 4.48058 15.8049 4.41086C15.775 4.34114 15.7314 4.27808 15.6769 4.22536L14.0608 2.60814C14.0081 2.55356 13.945 2.51002 13.8753 2.48007C13.8056 2.45012 13.7306 2.43436 13.6547 2.4337C13.5788 2.43304 13.5036 2.4475 13.4333 2.47623C13.3631 2.50496 13.2993 2.5474 13.2456 2.60105C13.192 2.65471 13.1496 2.71851 13.1208 2.78874C13.0921 2.85897 13.0776 2.93422 13.0783 3.0101C13.079 3.08598 13.0947 3.16097 13.1247 3.23069C13.1546 3.30041 13.1981 3.36346 13.2527 3.41618L13.6573 3.82077L13.2527 4.22536L13.239 4.23908C12.0821 3.23403 10.6599 2.58401 9.1428 2.36698V1.14292H9.71426C9.86582 1.14292 10.0112 1.08271 10.1183 0.975541C10.2255 0.868371 10.2857 0.723019 10.2857 0.571458C10.2857 0.419898 10.2255 0.274546 10.1183 0.167376C10.0112 0.0602071 9.86582 0 9.71426 0L6.28551 0ZM8.57134 6.40033V10.2863C8.57134 10.4378 8.51114 10.5832 8.40397 10.6903C8.2968 10.7975 8.15145 10.8577 7.99989 10.8577H3.99968C3.84812 10.8577 3.70276 10.7975 3.59559 10.6903C3.48842 10.5832 3.42822 10.4378 3.42822 10.2863C3.42822 10.1347 3.48842 9.98934 3.59559 9.88217C3.70276 9.775 3.84812 9.71479 3.99968 9.71479H7.42843V6.40033C7.42843 6.24877 7.48863 6.10342 7.5958 5.99625C7.70297 5.88908 7.84832 5.82888 7.99989 5.82888C8.15145 5.82888 8.2968 5.88908 8.40397 5.99625C8.51114 6.10342 8.57134 6.24877 8.57134 6.40033Z" fill="white"/>
</svg>
