<svg width="59" height="72" viewBox="0 0 59 72" fill="none" xmlns="http://www.w3.org/2000/svg">
<path d="M7.36364 72C5.33864 72 3.60573 71.3291 2.16491 69.9874C0.72409 68.6457 0.00245455 67.0309 0 65.1429V30.8571C0 28.9714 0.721636 27.3577 2.16491 26.016C3.60818 24.6743 5.34109 24.0023 7.36364 24H11.0455V17.1429C11.0455 12.4 12.841 8.35771 16.432 5.016C20.023 1.67429 24.3638 0.00228571 29.4545 0C34.5477 0 38.8898 1.672 42.4808 5.016C46.0718 8.36 47.8661 12.4023 47.8636 17.1429V24H51.5454C53.5704 24 55.3046 24.672 56.7479 26.016C58.1911 27.36 58.9115 28.9737 58.9091 30.8571V65.1429C58.9091 67.0286 58.1887 68.6434 56.7479 69.9874C55.307 71.3314 53.5729 72.0023 51.5454 72H7.36364ZM29.4545 54.8571C31.4795 54.8571 33.2137 54.1863 34.657 52.8446C36.1002 51.5029 36.8206 49.888 36.8182 48C36.8182 46.1143 36.0978 44.5006 34.657 43.1589C33.2161 41.8171 31.482 41.1451 29.4545 41.1429C27.4295 41.1429 25.6966 41.8149 24.2558 43.1589C22.815 44.5029 22.0934 46.1166 22.0909 48C22.0909 49.8857 22.8125 51.5006 24.2558 52.8446C25.6991 54.1886 27.432 54.8594 29.4545 54.8571ZM18.4091 24H40.5V17.1429C40.5 14.2857 39.4261 11.8571 37.2784 9.85714C35.1307 7.85714 32.5227 6.85714 29.4545 6.85714C26.3864 6.85714 23.7784 7.85714 21.6307 9.85714C19.483 11.8571 18.4091 14.2857 18.4091 17.1429V24Z" fill="white" fill-opacity="0.8"/>
</svg>
