<svg width="72" height="72" viewBox="0 0 72 72" fill="none" xmlns="http://www.w3.org/2000/svg">
<path d="M10.9904 61.8944C7.55201 58.5735 4.80945 54.6011 2.92272 50.2089C1.036 45.8168 0.0428966 41.0929 0.00135924 36.3128C-0.0401781 31.5328 0.870683 26.7923 2.68079 22.368C4.49091 17.9438 7.16402 13.9243 10.5442 10.5442C13.9243 7.16402 17.9438 4.49091 22.368 2.68079C26.7923 0.870683 31.5328 -0.0401781 36.3128 0.00135924C41.0929 0.0428966 45.8168 1.036 50.2089 2.92272C54.6011 4.80945 58.5735 7.55201 61.8944 10.9904C68.4521 17.7801 72.0807 26.8737 71.9986 36.3128C71.9166 45.7519 68.1305 54.7812 61.4558 61.4558C54.7812 68.1305 45.7519 71.9166 36.3128 71.9986C26.8737 72.0807 17.7801 68.4521 10.9904 61.8944ZM56.8184 56.8184C62.2224 51.4143 65.2584 44.0849 65.2584 36.4424C65.2584 28.7999 62.2224 21.4704 56.8184 16.0664C51.4143 10.6623 44.0849 7.62636 36.4424 7.62636C28.7999 7.62636 21.4704 10.6623 16.0664 16.0664C10.6623 21.4704 7.62636 28.7999 7.62636 36.4424C7.62636 44.0849 10.6623 51.4143 16.0664 56.8184C21.4704 62.2224 28.7999 65.2584 36.4424 65.2584C44.0849 65.2584 51.4143 62.2224 56.8184 56.8184ZM25.6424 22.0424L54.4424 36.4424L25.6424 50.8424V22.0424Z" fill="white" fill-opacity="0.8"/>
</svg>
