<svg width="18" height="18" viewBox="0 0 18 18" fill="none" xmlns="http://www.w3.org/2000/svg">
<path d="M17.2446 16.0064C17.3258 16.0877 17.3903 16.1842 17.4343 16.2905C17.4783 16.3967 17.501 16.5105 17.501 16.6255C17.501 16.7405 17.4783 16.8543 17.4343 16.9605C17.3903 17.0667 17.3258 17.1633 17.2446 17.2446C17.1633 17.3258 17.0667 17.3903 16.9605 17.4343C16.8543 17.4783 16.7405 17.501 16.6255 17.501C16.5105 17.501 16.3967 17.4783 16.2905 17.4343C16.1842 17.3903 16.0877 17.3258 16.0064 17.2446L8.75049 9.98752L1.49455 17.2446C1.33036 17.4087 1.10768 17.501 0.875486 17.501C0.643293 17.501 0.42061 17.4087 0.256424 17.2446C0.0922384 17.0804 4.57709e-09 16.8577 0 16.6255C-4.57709e-09 16.3933 0.0922384 16.1706 0.256424 16.0064L7.51346 8.75049L0.256424 1.49455C0.0922384 1.33036 -1.72998e-09 1.10768 0 0.875486C1.72998e-09 0.643293 0.0922384 0.42061 0.256424 0.256424C0.42061 0.0922384 0.643293 1.72998e-09 0.875486 0C1.10768 -1.72998e-09 1.33036 0.0922384 1.49455 0.256424L8.75049 7.51346L16.0064 0.256424C16.1706 0.0922384 16.3933 -4.57709e-09 16.6255 0C16.8577 4.57709e-09 17.0804 0.0922384 17.2446 0.256424C17.4087 0.42061 17.501 0.643293 17.501 0.875486C17.501 1.10768 17.4087 1.33036 17.2446 1.49455L9.98752 8.75049L17.2446 16.0064Z" fill="#F8F8F8"/>
</svg>
